<svg width="131" height="131" viewBox="0 0 131 131" fill="none" xmlns="http://www.w3.org/2000/svg">
  <rect x="20" y="20" width="111" height="111" rx="25" fill="#1A0C67" />
  <rect width="111" height="111" rx="25" fill="#3E1BFA"
    style="fill:#3E1BFA;fill:color(display-p3 0.2431 0.1059 0.9804);fill-opacity:1;" />
  <path
    d="M26 57V33C26 29.134 29.134 26 33 26C36.866 26 40 29.134 40 33V57C40 65.2843 46.7157 72 55 72C63.2843 72 70 65.2843 70 57V33C70 29.134 73.134 26 77 26C80.866 26 84 29.134 84 33V57C84 73.0163 71.0163 86 55 86C38.9837 86 26 73.0163 26 57Z"
    fill="white" style="fill:white;fill-opacity:1;" />
</svg>
